<svg xmlns="http://www.w3.org/2000/svg" viewBox="0 0 280 64" role="img" aria-labelledby="title desc">
  <title id="title">Dankbot logo</title>
  <desc id="desc">Dankbot wordmark with a pixel-style mascot icon.</desc>
  <rect width="280" height="64" rx="12" fill="none"/>
  <g transform="translate(2 2)">
    <svg x="0" y="0" width="60" height="60" viewBox="0 0 96 96">
      <rect width="96" height="96" rx="18" fill="#0b0d10"/>
      <g shape-rendering="crispEdges">
        <rect x="22" y="12" width="40" height="8" fill="#9dbd3f"/>
        <rect x="18" y="20" width="44" height="8" fill="#d8df8a"/>
        <rect x="14" y="28" width="52" height="8" fill="#f2f0b6"/>
        <rect x="12" y="36" width="52" height="8" fill="#ebe5a7"/>
        <rect x="16" y="44" width="44" height="8" fill="#efe7b3"/>
        <rect x="20" y="52" width="40" height="8" fill="#eadfab"/>
        <rect x="24" y="60" width="36" height="8" fill="#e5d99f"/>
        <rect x="20" y="68" width="40" height="8" fill="#d0b483"/>
        <rect x="18" y="76" width="44" height="6" fill="#b58d68"/>
        <rect x="28" y="44" width="10" height="10" fill="#171717"/>
        <rect x="32" y="48" width="6" height="6" fill="#ffffff"/>
        <rect x="50" y="44" width="10" height="10" fill="#171717"/>
        <rect x="54" y="48" width="6" height="6" fill="#ffffff"/>
        <rect x="30" y="64" width="24" height="4" fill="#3b2a26"/>
      </g>
    </svg>
  </g>
  <g fill="none" stroke="#7aa6ff" stroke-width="1">
    <path d="M70 16H276"/>
    <path d="M70 50H276"/>
  </g>
  <g fill="#f2f6ff" font-family="'IBM Plex Sans', 'Segoe UI', sans-serif" font-weight="700">
    <text x="78" y="34" font-size="24" letter-spacing="-0.04em">dankbot</text>
  </g>
  <g fill="#7fa5e4" font-family="'IBM Plex Mono', monospace" font-size="10" text-transform="uppercase">
    <text x="80" y="47">stream control // moderation // alerts</text>
  </g>
</svg>
